<?xml version="1.0" encoding="UTF-8" standalone="no"?>
<svg
   xmlns:dc="http://purl.org/dc/elements/1.1/"
   xmlns:cc="http://creativecommons.org/ns#"
   xmlns:rdf="http://www.w3.org/1999/02/22-rdf-syntax-ns#"
   xmlns:svg="http://www.w3.org/2000/svg"
   xmlns="http://www.w3.org/2000/svg"
   xmlns:sodipodi="http://sodipodi.sourceforge.net/DTD/sodipodi-0.dtd"
   xmlns:inkscape="http://www.inkscape.org/namespaces/inkscape"
   width="210mm"
   height="297mm"
   viewBox="0 0 210 297"
   version="1.1"
   id="svg8"
   inkscape:version="1.0.1 (3bc2e813f5, 2020-09-07)"
   sodipodi:docname="drawing.svg">
  <defs
     id="defs2">
    <marker
       style="overflow:visible"
       id="Arrow1Mstart"
       refX="0.0"
       refY="0.0"
       orient="auto"
       inkscape:stockid="Arrow1Mstart"
       inkscape:isstock="true">
      <path
         transform="scale(0.4) translate(10,0)"
         style="fill-rule:evenodd;stroke:#000000;stroke-width:1.0pt"
         d="M 0.0,0.0 L 5.0,-5.0 L -12.5,0.0 L 5.0,5.0 L 0.0,0.0 z "
         id="path886" />
    </marker>
    <marker
       style="overflow:visible;"
       id="Arrow1Lend"
       refX="0.0"
       refY="0.0"
       orient="auto"
       inkscape:stockid="Arrow1Lend"
       inkscape:isstock="true">
      <path
         transform="scale(0.8) rotate(180) translate(12.5,0)"
         style="fill-rule:evenodd;stroke:#000000;stroke-width:1.0pt;"
         d="M 0.0,0.0 L 5.0,-5.0 L -12.5,0.0 L 5.0,5.0 L 0.0,0.0 z "
         id="path883" />
    </marker>
    <marker
       style="overflow:visible"
       id="Arrow1Lstart"
       refX="0.0"
       refY="0.0"
       orient="auto"
       inkscape:stockid="Arrow1Lstart"
       inkscape:isstock="true">
      <path
         transform="scale(0.8) translate(12.5,0)"
         style="fill-rule:evenodd;stroke:#000000;stroke-width:1.0pt"
         d="M 0.0,0.0 L 5.0,-5.0 L -12.5,0.0 L 5.0,5.0 L 0.0,0.0 z "
         id="path880" />
    </marker>
  </defs>
  <sodipodi:namedview
     id="base"
     pagecolor="#ffffff"
     bordercolor="#666666"
     borderopacity="1.0"
     inkscape:pageopacity="0.0"
     inkscape:pageshadow="2"
     inkscape:zoom="0.35355339"
     inkscape:cx="-553.84932"
     inkscape:cy="1720.0402"
     inkscape:document-units="mm"
     inkscape:current-layer="g1022"
     inkscape:document-rotation="0"
     showgrid="false"
     inkscape:window-width="1356"
     inkscape:window-height="734"
     inkscape:window-x="0"
     inkscape:window-y="24"
     inkscape:window-maximized="0"
     inkscape:snap-bbox="true"
     inkscape:snap-bbox-edge-midpoints="true"
     inkscape:bbox-nodes="true"
     inkscape:bbox-paths="true"
     inkscape:snap-bbox-midpoints="true"
     showguides="false"
     inkscape:guide-bbox="true"
     inkscape:snap-global="false" />
  <metadata
     id="metadata5">
    <rdf:RDF>
      <cc:Work
         rdf:about="">
        <dc:format>image/svg+xml</dc:format>
        <dc:type
           rdf:resource="http://purl.org/dc/dcmitype/StillImage" />
        <dc:title />
      </cc:Work>
    </rdf:RDF>
  </metadata>
  <g
     inkscape:label="Layer 1"
     inkscape:groupmode="layer"
     id="layer1">
    <g
       id="g868">
      <circle
         style="fill:#c8beb7;stroke:#483e37;stroke-width:4.06501;stroke-miterlimit:4;stroke-dasharray:none"
         id="path837"
         cx="32.51189"
         cy="50.371967"
         r="13.883807" />
      <g
         id="g862"
         transform="translate(0,-30.91679)">
        <rect
           style="fill:#c8beb7;stroke:#000000;stroke-width:2.92242;stroke-miterlimit:4;stroke-dasharray:none"
           id="rect839"
           width="1.913914"
           height="12.00792"
           x="31.554934"
           y="78.287994"
           ry="0.95695698" />
        <circle
           style="fill:#000000;stroke:none;stroke-width:5.18449;stroke-miterlimit:4;stroke-dasharray:none"
           id="path841"
           cx="32.51189"
           cy="73.200577"
           r="2.380187" />
      </g>
    </g>
    <g
       id="g946">
      <rect
         style="fill:#d40000;stroke:#aa0000;stroke-width:4;stroke-linecap:round;stroke-linejoin:round;stroke-miterlimit:4;stroke-dasharray:none;stroke-dashoffset:0;paint-order:fill markers stroke"
         id="rect870"
         width="148.53516"
         height="63.976501"
         x="-446.38864"
         y="202.38251"
         ry="15.880591" />
      <text
         xml:space="preserve"
         style="font-style:normal;font-variant:normal;font-weight:normal;font-stretch:normal;font-size:50.8px;line-height:1.25;font-family:Righteous;-inkscape-font-specification:'Righteous, Normal';font-variant-ligatures:normal;font-variant-caps:normal;font-variant-numeric:normal;font-variant-east-asian:normal;fill:#ffaaaa;fill-opacity:1;stroke:none;stroke-width:0;stroke-miterlimit:4;stroke-dasharray:none"
         x="-436.27838"
         y="252.15572"
         id="text874"><tspan
           sodipodi:role="line"
           id="tspan872"
           x="-436.27838"
           y="252.15572"
           style="font-style:normal;font-variant:normal;font-weight:normal;font-stretch:normal;font-size:50.8px;font-family:Righteous;-inkscape-font-specification:'Righteous, Normal';font-variant-ligatures:normal;font-variant-caps:normal;font-variant-numeric:normal;font-variant-east-asian:normal;fill:#ffaaaa;stroke:none;stroke-width:0;stroke-miterlimit:4;stroke-dasharray:none">PLAY</tspan></text>
    </g>
    <rect
       style="fill:#71c837;fill-opacity:0.827777;fill-rule:evenodd;stroke:#a05a2c;stroke-width:2;stroke-miterlimit:4;stroke-dasharray:none;stroke-dashoffset:0"
       id="rect10"
       width="120.38235"
       height="146.62451"
       x="-151.02556"
       y="58.168171"
       ry="17.625298"
       inkscape:export-filename="/home/abhinav/Dev/Apples/Assets/popup/popup.png"
       inkscape:export-xdpi="96"
       inkscape:export-ydpi="96" />
    <g
       id="g1014">
      <circle
         style="fill:#c8beb7;stroke:#483e37;stroke-width:4.06501;stroke-miterlimit:4;stroke-dasharray:none"
         id="circle948"
         cx="84.241249"
         cy="50.371967"
         r="13.883807" />
      <path
         id="circle966"
         style="fill:#1a1a1a;fill-opacity:1;stroke-width:5.10685;stroke-linecap:round;stroke-linejoin:round;paint-order:fill markers stroke"
         d="m 82.726086,40.896262 v 2.860171 a 6.7869058,6.7869058 0 0 0 -0.105608,0.02543 6.7869058,6.7869058 0 0 0 -0.150586,0.0391 6.7869058,6.7869058 0 0 0 -0.148634,0.04205 6.7869058,6.7869058 0 0 0 -0.148628,0.04596 6.7869058,6.7869058 0 0 0 -0.146676,0.04891 6.7869058,6.7869058 0 0 0 -0.140809,0.04986 6.7869058,6.7869058 0 0 0 -0.0078,0.003 6.7869058,6.7869058 0 0 0 -0.14179,0.05476 6.7869058,6.7869058 0 0 0 -0.139827,0.05769 6.7869058,6.7869058 0 0 0 -0.005,0.002 6.7869058,6.7869058 0 0 0 -0.140809,0.0616 6.7869058,6.7869058 0 0 0 -0.137874,0.06454 6.7869058,6.7869058 0 0 0 -0.005,0.002 6.7869058,6.7869058 0 0 0 -0.0391,0.01857 6.7869058,6.7869058 0 0 0 -0.09778,0.04891 6.7869058,6.7869058 0 0 0 -0.108542,0.05574 6.7869058,6.7869058 0 0 0 -0.04205,0.02248 6.7869058,6.7869058 0 0 0 -0.08899,0.04986 6.7869058,6.7869058 0 0 0 -0.06747,0.03815 6.7869058,6.7869058 0 0 0 -0.01467,0.0078 6.7869058,6.7869058 0 0 0 -0.106584,0.06258 6.7869058,6.7869058 0 0 0 -0.09681,0.05965 6.7869058,6.7869058 0 0 0 -0.01958,0.01171 6.7869058,6.7869058 0 0 0 -0.101697,0.06649 6.7869058,6.7869058 0 0 0 -0.03815,0.02443 6.7869058,6.7869058 0 0 0 -0.02348,0.01562 6.7869058,6.7869058 0 0 0 -0.08996,0.0616 6.7869058,6.7869058 0 0 0 -0.0098,0.0069 l -2.111151,-1.929268 -2.042701,2.235332 2.117018,1.935141 a 6.7869058,6.7869058 0 0 0 -0.03815,0.0704 6.7869058,6.7869058 0 0 0 -0.06747,0.12614 6.7869058,6.7869058 0 0 0 -0.01272,0.02543 6.7869058,6.7869058 0 0 0 -0.06161,0.122229 6.7869058,6.7869058 0 0 0 -0.001,0.002 6.7869058,6.7869058 0 0 0 -0.06649,0.139832 6.7869058,6.7869058 0 0 0 -0.0528,0.117338 6.7869058,6.7869058 0 0 0 -0.02053,0.04791 6.7869058,6.7869058 0 0 0 -0.04987,0.118319 6.7869058,6.7869058 0 0 0 -0.05671,0.144719 6.7869058,6.7869058 0 0 0 -0.05378,0.145695 6.7869058,6.7869058 0 0 0 -0.04986,0.146676 6.7869058,6.7869058 0 0 0 -0.04496,0.141789 6.7869058,6.7869058 0 0 0 -0.004,0.01272 6.7869058,6.7869058 0 0 0 -0.04105,0.141785 6.7869058,6.7869058 0 0 0 -0.0401,0.14961 6.7869058,6.7869058 0 0 0 -0.0362,0.150586 6.7869058,6.7869058 0 0 0 -0.003,0.01172 l -2.860171,-0.0078 -0.0078,3.02836 2.867996,0.0078 a 6.7869058,6.7869058 0 0 0 0.02543,0.105603 6.7869058,6.7869058 0 0 0 0.02248,0.088 6.7869058,6.7869058 0 0 0 0.02834,0.105608 6.7869058,6.7869058 0 0 0 0,10e-4 6.7869058,6.7869058 0 0 0 0.03034,0.104631 6.7869058,6.7869058 0 0 0 0.03129,0.10365 6.7869058,6.7869058 0 0 0 0.02834,0.08898 6.7869058,6.7869058 0 0 0 0.04496,0.132989 6.7869058,6.7869058 0 0 0 0.005,0.01367 6.7869058,6.7869058 0 0 0 0.03715,0.101698 6.7869058,6.7869058 0 0 0 0.05574,0.144718 6.7869058,6.7869058 0 0 0 0.05769,0.139833 6.7869058,6.7869058 0 0 0 0.002,0.0059 6.7869058,6.7869058 0 0 0 0.03815,0.08801 6.7869058,6.7869058 0 0 0 0.04206,0.09387 6.7869058,6.7869058 0 0 0 0,10e-4 6.7869058,6.7869058 0 0 0 0.0665,0.138851 6.7869058,6.7869058 0 0 0 0.06552,0.132012 6.7869058,6.7869058 0 0 0 0.004,0.0069 6.7869058,6.7869058 0 0 0 0.05085,0.09582 6.7869058,6.7869058 0 0 0 0.05085,0.09192 6.7869058,6.7869058 0 0 0 0.04691,0.08409 6.7869058,6.7869058 0 0 0 0.05574,0.09582 6.7869058,6.7869058 0 0 0 0.08019,0.130055 6.7869058,6.7869058 0 0 0 0.07334,0.114404 6.7869058,6.7869058 0 0 0 0.02053,0.03129 6.7869058,6.7869058 0 0 0 0.05965,0.08703 6.7869058,6.7869058 0 0 0 0.02248,0.03324 l -1.924382,2.117013 2.242181,2.036833 1.923401,-2.116036 a 6.7869058,6.7869058 0 0 0 0.04401,0.02348 6.7869058,6.7869058 0 0 0 0.05769,0.03229 6.7869058,6.7869058 0 0 0 0.09192,0.04891 6.7869058,6.7869058 0 0 0 0.03129,0.01562 6.7869058,6.7869058 0 0 0 0.08605,0.04401 6.7869058,6.7869058 0 0 0 0.06747,0.03324 6.7869058,6.7869058 0 0 0 0.06942,0.03229 6.7869058,6.7869058 0 0 0 0.08996,0.04205 6.7869058,6.7869058 0 0 0 0.03229,0.01367 6.7869058,6.7869058 0 0 0 0.126145,0.05476 6.7869058,6.7869058 0 0 0 0.132983,0.05476 6.7869058,6.7869058 0 0 0 0.01857,0.0069 6.7869058,6.7869058 0 0 0 0.136898,0.05182 6.7869058,6.7869058 0 0 0 0.09974,0.0362 6.7869058,6.7869058 0 0 0 0.07823,0.02739 6.7869058,6.7869058 0 0 0 0.115385,0.03715 6.7869058,6.7869058 0 0 0 0.147653,0.04501 6.7869058,6.7869058 0 0 0 0.14961,0.04205 6.7869058,6.7869058 0 0 0 0.149605,0.03815 6.7869058,6.7869058 0 0 0 0.08899,0.02153 v 2.860171 h 3.029336 v -2.860171 a 6.7869058,6.7869058 0 0 0 0.105607,-0.02543 6.7869058,6.7869058 0 0 0 0.150587,-0.0391 6.7869058,6.7869058 0 0 0 0.140808,-0.0391 6.7869058,6.7869058 0 0 0 0.0088,-0.003 6.7869058,6.7869058 0 0 0 0.003,-10e-4 6.7869058,6.7869058 0 0 0 0.09387,-0.02834 6.7869058,6.7869058 0 0 0 0.09485,-0.03034 6.7869058,6.7869058 0 0 0 0.136899,-0.04691 6.7869058,6.7869058 0 0 0 0.0098,-0.003 6.7869058,6.7869058 0 0 0 0.102674,-0.03715 6.7869058,6.7869058 0 0 0 0.002,-10e-4 6.7869058,6.7869058 0 0 0 0.138856,-0.05378 6.7869058,6.7869058 0 0 0 0.004,-10e-4 6.7869058,6.7869058 0 0 0 0.04205,-0.01662 6.7869058,6.7869058 0 0 0 0.100716,-0.04205 6.7869058,6.7869058 0 0 0 0.09192,-0.0391 6.7869058,6.7869058 0 0 0 0.09191,-0.04205 6.7869058,6.7869058 0 0 0 0.09681,-0.04496 6.7869058,6.7869058 0 0 0 0.002,-0.001 6.7869058,6.7869058 0 0 0 0.138851,-0.06845 6.7869058,6.7869058 0 0 0 0.134941,-0.0704 6.7869058,6.7869058 0 0 0 0.003,-0.002 6.7869058,6.7869058 0 0 0 0.0401,-0.02153 6.7869058,6.7869058 0 0 0 0.09583,-0.0528 6.7869058,6.7869058 0 0 0 0.0098,-0.0059 6.7869058,6.7869058 0 0 0 0.109518,-0.06356 6.7869058,6.7869058 0 0 0 0.01467,-0.0088 6.7869058,6.7869058 0 0 0 0.0391,-0.02348 6.7869058,6.7869058 0 0 0 0.0929,-0.05671 6.7869058,6.7869058 0 0 0 0.01272,-0.0078 6.7869058,6.7869058 0 0 0 0.09387,-0.0616 6.7869058,6.7869058 0 0 0 0.02348,-0.01467 6.7869058,6.7869058 0 0 0 0.03815,-0.02543 6.7869058,6.7869058 0 0 0 0.02248,-0.01562 6.7869058,6.7869058 0 0 0 0.07724,-0.0528 l 2.112127,1.929268 2.042701,-2.236308 -2.117013,-1.935141 a 6.7869058,6.7869058 0 0 0 0.03224,-0.05965 6.7869058,6.7869058 0 0 0 0.0059,-0.0098 6.7869058,6.7869058 0 0 0 0.005,-0.0098 6.7869058,6.7869058 0 0 0 0.06747,-0.127121 6.7869058,6.7869058 0 0 0 0.05574,-0.109517 6.7869058,6.7869058 0 0 0 0.01467,-0.02834 6.7869058,6.7869058 0 0 0 0.01172,-0.02348 6.7869058,6.7869058 0 0 0 0.05183,-0.111475 6.7869058,6.7869058 0 0 0 0.003,-0.0059 6.7869058,6.7869058 0 0 0 0.003,-0.0059 6.7869058,6.7869058 0 0 0 0.05965,-0.134941 6.7869058,6.7869058 0 0 0 0.05085,-0.119295 6.7869058,6.7869058 0 0 0 0.0098,-0.02348 6.7869058,6.7869058 0 0 0 0.0088,-0.02348 6.7869058,6.7869058 0 0 0 0.04791,-0.121253 6.7869058,6.7869058 0 0 0 0.05378,-0.145694 6.7869058,6.7869058 0 0 0 0.04986,-0.146676 6.7869058,6.7869058 0 0 0 0.0391,-0.12223 6.7869058,6.7869058 0 0 0 0.0078,-0.02543 6.7869058,6.7869058 0 0 0 0.02153,-0.07236 6.7869058,6.7869058 0 0 0 0.02153,-0.07627 6.7869058,6.7869058 0 0 0 0.0401,-0.14961 6.7869058,6.7869058 0 0 0 0.0362,-0.150587 6.7869058,6.7869058 0 0 0 0.003,-0.01172 l 2.860171,0.0078 0.0078,-3.029336 -2.867996,-0.0078 a 6.7869058,6.7869058 0 0 0 -0.02543,-0.105603 6.7869058,6.7869058 0 0 0 -0.0391,-0.150586 6.7869058,6.7869058 0 0 0 -0.04205,-0.148633 6.7869058,6.7869058 0 0 0 -0.03129,-0.10365 6.7869058,6.7869058 0 0 0 -0.02834,-0.08898 6.7869058,6.7869058 0 0 0 -0.04496,-0.132989 6.7869058,6.7869058 0 0 0 -0.005,-0.01367 6.7869058,6.7869058 0 0 0 -0.03715,-0.101698 6.7869058,6.7869058 0 0 0 -0.05573,-0.144718 6.7869058,6.7869058 0 0 0 -0.0577,-0.139833 6.7869058,6.7869058 0 0 0 -0.001,-0.004 6.7869058,6.7869058 0 0 0 -0.001,-10e-4 6.7869058,6.7869058 0 0 0 -0.0616,-0.140809 6.7869058,6.7869058 0 0 0 -0.06454,-0.137874 6.7869058,6.7869058 0 0 0 -0.001,-0.003 6.7869058,6.7869058 0 0 0 -0.01958,-0.04105 6.7869058,6.7869058 0 0 0 -0.04891,-0.09778 6.7869058,6.7869058 0 0 0 -0.07138,-0.136893 6.7869058,6.7869058 0 0 0 -0.07529,-0.135922 6.7869058,6.7869058 0 0 0 -0.02248,-0.0401 6.7869058,6.7869058 0 0 0 -0.05476,-0.09387 6.7869058,6.7869058 0 0 0 -0.001,-0.002 6.7869058,6.7869058 0 0 0 -0.08018,-0.130055 6.7869058,6.7869058 0 0 0 -0.02443,-0.0391 6.7869058,6.7869058 0 0 0 -0.05965,-0.09192 6.7869058,6.7869058 0 0 0 -0.02543,-0.03815 6.7869058,6.7869058 0 0 0 -0.06161,-0.08996 6.7869058,6.7869058 0 0 0 -0.005,-0.0078 l 1.923406,-2.116036 -2.242181,-2.037815 -1.923401,2.117018 a 6.7869058,6.7869058 0 0 0 -0.07138,-0.0401 6.7869058,6.7869058 0 0 0 -0.02153,-0.01172 6.7869058,6.7869058 0 0 0 -0.10365,-0.05476 6.7869058,6.7869058 0 0 0 -0.01171,-0.0059 6.7869058,6.7869058 0 0 0 -0.06552,-0.03324 6.7869058,6.7869058 0 0 0 -0.002,-10e-4 6.7869058,6.7869058 0 0 0 -0.129078,-0.06356 6.7869058,6.7869058 0 0 0 -0.0078,-0.004 6.7869058,6.7869058 0 0 0 -0.07432,-0.0352 6.7869058,6.7869058 0 0 0 -0.02639,-0.01171 6.7869058,6.7869058 0 0 0 -0.115385,-0.05085 6.7869058,6.7869058 0 0 0 -0.132988,-0.05671 6.7869058,6.7869058 0 0 0 -0.0098,-0.004 6.7869058,6.7869058 0 0 0 -0.01172,-0.005 6.7869058,6.7869058 0 0 0 -0.102669,-0.0401 6.7869058,6.7869058 0 0 0 -0.02934,-0.01172 6.7869058,6.7869058 0 0 0 -0.06845,-0.02543 6.7869058,6.7869058 0 0 0 -0.07725,-0.02739 6.7869058,6.7869058 0 0 0 -0.06943,-0.02443 6.7869058,6.7869058 0 0 0 -0.07725,-0.02638 6.7869058,6.7869058 0 0 0 -0.02934,-0.0088 6.7869058,6.7869058 0 0 0 -0.118314,-0.03715 6.7869058,6.7869058 0 0 0 -0.101698,-0.03034 6.7869058,6.7869058 0 0 0 -0.118319,-0.03224 6.7869058,6.7869058 0 0 0 -0.117338,-0.03034 6.7869058,6.7869058 0 0 0 -0.08018,-0.01957 6.7869058,6.7869058 0 0 0 -0.03224,-0.0078 6.7869058,6.7869058 0 0 0 -0.0088,-0.002 v -2.860171 z m 1.515644,7.082466 a 2.3929023,2.3929023 0 0 1 2.392767,2.393743 2.3929023,2.3929023 0 0 1 -2.392767,2.392767 2.3929023,2.3929023 0 0 1 -2.393743,-2.392767 2.3929023,2.3929023 0 0 1 2.393743,-2.393743 z" />
      <path
         id="path964"
         style="fill:#000000;fill-opacity:1;stroke-width:3.75747;stroke-linecap:round;stroke-linejoin:round;paint-order:fill markers stroke;stroke:none"
         d="m 84.240754,45.378661 a 4.9936237,4.9936237 0 0 0 -4.992834,4.99381 4.9936237,4.9936237 0 0 0 4.992834,4.992835 4.9936237,4.9936237 0 0 0 4.99381,-4.992835 4.9936237,4.9936237 0 0 0 -4.99381,-4.99381 z m 0,1.71219 a 3.2812929,3.2812929 0 0 1 3.28162,3.28162 3.2812929,3.2812929 0 0 1 -3.28162,3.280644 3.2812929,3.2812929 0 0 1 -3.280639,-3.280644 3.2812929,3.2812929 0 0 1 3.280639,-3.28162 z" />
    </g>
    <g
       id="g1022"
       transform="translate(0,123.78488)">
      <g
         id="g1027"
         inkscape:export-filename="/home/abhinav/Dev/Apples/Assets/buttonicon/popup/close.png"
         inkscape:export-xdpi="69.194679"
         inkscape:export-ydpi="69.194679">
        <rect
           style="fill:#d40000;stroke:#aa0000;stroke-width:4.4311;stroke-linecap:round;stroke-linejoin:round;stroke-miterlimit:4;stroke-dasharray:none;stroke-dashoffset:0;paint-order:fill markers stroke"
           id="rect1016"
           width="183.51401"
           height="63.545399"
           x="-448.28833"
           y="202.59805"
           ry="15.773581" />
        <text
           xml:space="preserve"
           style="font-style:normal;font-variant:normal;font-weight:normal;font-stretch:normal;font-size:50.8px;line-height:1.25;font-family:Righteous;-inkscape-font-specification:'Righteous, Normal';font-variant-ligatures:normal;font-variant-caps:normal;font-variant-numeric:normal;font-variant-east-asian:normal;fill:#ffaaaa;fill-opacity:1;stroke:none;stroke-width:0;stroke-miterlimit:4;stroke-dasharray:none"
           x="-436.27838"
           y="252.15572"
           id="text1020"><tspan
             sodipodi:role="line"
             id="tspan1018"
             x="-436.27838"
             y="252.15572"
             style="font-style:normal;font-variant:normal;font-weight:normal;font-stretch:normal;font-size:50.8px;font-family:Righteous;-inkscape-font-specification:'Righteous, Normal';font-variant-ligatures:normal;font-variant-caps:normal;font-variant-numeric:normal;font-variant-east-asian:normal;fill:#ffaaaa;stroke:none;stroke-width:0;stroke-miterlimit:4;stroke-dasharray:none">CLOSE</tspan></text>
      </g>
      <g
         id="g903">
        <rect
           style="fill:#87aade;fill-opacity:0.89085442;stroke-width:2;stroke-linecap:round;stroke-linejoin:round;paint-order:fill markers stroke"
           id="rect881"
           width="144"
           height="256"
           x="-129.44669"
           y="191.60768"
           ry="0" />
        <rect
           style="fill:#a05a2c;fill-opacity:0.97458899;stroke-width:2;stroke-linecap:round;stroke-linejoin:round;paint-order:fill markers stroke"
           id="rect883"
           width="144"
           height="35"
           x="-129.44669"
           y="412.60767" />
        <path
           id="path885"
           style="fill:#0b2817;stroke:none;stroke-width:0.323462px;stroke-linecap:butt;stroke-linejoin:miter;stroke-opacity:1"
           d="m -129.4469,412.60768 0.87222,5.9487 5.7651,7.3636 0.92346,-8.64493 4.52737,4.26028 -3.59099,4.96779 7.08639,-5.57175 -1.57717,-2.12397 8.53075,-1.17091 -2.0004,6.17807 1.72289,2.59665 0.03,-3.55821 1.9699,-4.70058 2.36007,3.15122 -3.04271,6.86931 3.54242,-3.0709 1.42885,1.29679 -0.42736,-4.96545 4.697901,-2.58894 1.811258,3.15972 -3.822507,3.97067 5.266862,-2.10622 -2.028299,7.55055 4.490681,-9.36865 4.341338,4.75072 -1.254188,-4.66345 1.896009,-3.60689 3.663858,0.8094 -2.229837,8.01318 4.982125,-3.02916 -1.364258,-2.80287 h 5.403805 l 0.450102,9.00642 4.378025,-8.97708 5.462199,1.29291 1.597319,7.31961 4.960421,-8.86046 1.176674,-3.66482 1.176155,3.66482 4.960421,8.86046 1.597319,-7.31961 5.462198,-1.29291 4.378026,8.97708 0.450101,-9.00642 h 5.403805 l -1.364257,2.80287 4.982125,3.02916 -2.229837,-8.01318 3.663857,-0.8094 1.89601,3.60689 -1.254189,4.66345 4.341338,-4.75072 4.490682,9.36865 -2.0283,-7.55055 5.266862,2.10622 -3.822506,-3.97067 1.811259,-3.15972 4.6979,2.58894 -0.42736,4.96545 1.42885,-1.29679 3.54242,3.0709 -3.04271,-6.86931 2.36007,-3.15122 1.9699,4.70058 0.03,3.55821 1.72289,-2.59665 -2.0004,-6.17807 8.53075005,1.17091 -1.57717005,2.12397 7.08639,5.57175 -3.59099,-4.96779 4.52737,-4.26028 0.92346,8.64493 6.635754,-6.18848 0.0016,-7.12382 h -70.385368 -3.229261 z"
           sodipodi:nodetypes="cccccccccccccccccccccccccccccccccccccccccccccccccccccccccccccccccccccccccccccc" />
        <path
           id="path894"
           style="fill:#16502d;stroke:none;stroke-width:0.281273px;stroke-linecap:butt;stroke-linejoin:miter;stroke-opacity:1"
           d="m -129.4469,412.60768 0.87222,4.49814 5.7651,5.56801 0.92346,-6.5369 4.52737,3.22143 -3.59099,3.75642 7.08639,-4.21311 -1.57717,-1.60604 8.53075,-0.88539 -2.0004,4.67157 1.72289,1.96347 0.03,-2.69056 1.9699,-3.55436 2.36007,2.38281 -3.04271,5.19426 3.54242,-2.32208 1.42885,0.98058 -0.42736,-3.75465 4.697901,-1.95764 1.811258,2.38924 -3.822507,3.00244 5.266862,-1.59263 -2.028299,5.70938 4.490681,-7.08414 4.341338,3.59227 -1.254188,-3.52629 1.896009,-2.72736 3.663858,0.61203 -2.229837,6.0592 4.982125,-2.29051 -1.364258,-2.1194 h 5.403805 l 0.450102,6.81024 4.378025,-6.78806 5.462199,0.97764 1.597319,5.53476 4.960421,-6.69988 1.176674,-2.77117 1.176155,2.77117 4.960421,6.69988 1.597319,-5.53476 5.462198,-0.97764 4.378026,6.78806 0.450101,-6.81024 h 5.403805 l -1.364257,2.1194 4.982125,2.29051 -2.229837,-6.0592 3.663857,-0.61203 1.89601,2.72736 -1.254189,3.52629 4.341338,-3.59227 4.490682,7.08414 -2.0283,-5.70938 5.266862,1.59263 -3.822506,-3.00244 1.811259,-2.38924 4.6979,1.95764 -0.42736,3.75465 1.42885,-0.98058 3.54242,2.32208 -3.04271,-5.19426 2.36007,-2.38281 1.9699,3.55436 0.03,2.69056 1.72289,-1.96347 -2.0004,-4.67157 8.53075005,0.88539 -1.57717005,1.60604 7.08639,4.21311 -3.59099,-3.75642 4.52737,-3.22143 0.92346,6.5369 6.635754,-4.67944 0.0016,-5.38671 h -70.385368 -3.229261 z"
           sodipodi:nodetypes="cccccccccccccccccccccccccccccccccccccccccccccccccccccccccccccccccccccccccccccc" />
        <path
           id="path896"
           style="fill:#008033;stroke:none;stroke-width:0.228788px;stroke-linecap:butt;stroke-linejoin:miter;stroke-opacity:1"
           d="m -129.4469,412.60768 0.87222,2.97608 5.7651,3.68392 0.92346,-4.32497 4.52737,2.13138 -3.59099,2.48533 7.08639,-2.78749 -1.57717,-1.06259 8.53075,-0.5858 -2.0004,3.09082 1.72289,1.29908 0.03,-1.78014 1.9699,-2.35164 2.36007,1.57652 -3.04271,3.43664 3.54242,-1.53634 1.42885,0.64878 -0.42736,-2.48417 4.697901,-1.29522 1.811258,1.58078 -3.822507,1.98648 5.266862,-1.05372 -2.028299,3.77746 4.490681,-4.68703 4.341338,2.37673 -1.254188,-2.33308 1.896009,-1.80448 3.663858,0.40493 -2.229837,4.00891 4.982125,-1.51546 -1.364258,-1.40224 h 5.403805 l 0.450102,4.50581 4.378025,-4.49114 5.462199,0.64683 1.597319,3.66193 4.960421,-4.4328 1.176674,-1.83347 1.176155,1.83347 4.960421,4.4328 1.597319,-3.66193 5.462198,-0.64683 4.378026,4.49114 0.450101,-4.50581 h 5.403805 l -1.364257,1.40224 4.982125,1.51546 -2.229837,-4.00891 3.663857,-0.40493 1.89601,1.80448 -1.254189,2.33308 4.341338,-2.37673 4.490682,4.68703 -2.0283,-3.77746 5.266862,1.05372 -3.822506,-1.98648 1.811259,-1.58078 4.6979,1.29522 -0.42736,2.48417 1.42885,-0.64878 3.54242,1.53634 -3.04271,-3.43664 2.36007,-1.57652 1.9699,2.35164 0.03,1.78014 1.72289,-1.29908 -2.0004,-3.09082 8.53075005,0.5858 -1.57717005,1.06259 7.08639,2.78749 -3.59099,-2.48533 4.52737,-2.13138 0.92346,4.32497 6.635754,-3.09603 0.0016,-3.56397 h -70.385368 -3.229261 z"
           sodipodi:nodetypes="cccccccccccccccccccccccccccccccccccccccccccccccccccccccccccccccccccccccccccccc" />
      </g>
    </g>
  </g>
</svg>
